<svg xmlns="http://www.w3.org/2000/svg" xmlns:xlink="http://www.w3.org/1999/xlink" width="500" zoomAndPan="magnify" viewBox="0 0 375 374.999991" height="500" preserveAspectRatio="xMidYMid meet" version="1.2"><defs><clipPath id="d5a4862d7f"><path d="M 131.25 131.25 L 243.75 131.25 L 243.75 243.75 L 131.25 243.75 Z M 131.25 131.25 "/></clipPath><clipPath id="966c5b6e4b"><path d="M 187.5 131.25 C 156.433594 131.25 131.25 156.433594 131.25 187.5 C 131.25 218.566406 156.433594 243.75 187.5 243.75 C 218.566406 243.75 243.75 218.566406 243.75 187.5 C 243.75 156.433594 218.566406 131.25 187.5 131.25 Z M 187.5 131.25 "/></clipPath><clipPath id="3d2089b319"><path d="M 0.25 0.25 L 112.75 0.25 L 112.75 112.75 L 0.25 112.75 Z M 0.25 0.25 "/></clipPath><clipPath id="1a37121ed8"><path d="M 56.5 0.25 C 25.433594 0.25 0.25 25.433594 0.25 56.5 C 0.25 87.566406 25.433594 112.75 56.5 112.75 C 87.566406 112.75 112.75 87.566406 112.75 56.5 C 112.75 25.433594 87.566406 0.25 56.5 0.25 Z M 56.5 0.25 "/></clipPath><clipPath id="6a9f6ea377"><rect x="0" width="113" y="0" height="113"/></clipPath></defs><g id="92599253b2"><path style=" stroke:none;fill-rule:nonzero;fill:#38e31a;fill-opacity:1;" d="M 238.269531 104.578125 C 314.476562 104.578125 352.679688 170.28125 352.679688 187.507812 C 352.679688 204.738281 314.476562 270.4375 238.269531 270.4375 C 162.0625 270.4375 128.414062 229.570312 111.289062 204.738281 C 111.289062 204.738281 53.691406 273.441406 35.660156 242.203125 C 22.3125 219.070312 53.1875 187.507812 53.1875 187.507812 C 53.1875 187.507812 22.3125 155.945312 35.660156 132.8125 C 53.691406 101.574219 111.289062 170.28125 111.289062 170.28125 C 128.414062 145.445312 162.0625 104.578125 238.269531 104.578125 Z M 238.269531 104.578125 "/><g clip-rule="nonzero" clip-path="url(#d5a4862d7f)"><g clip-rule="nonzero" clip-path="url(#966c5b6e4b)"><g transform="matrix(1,0,0,1,131,131)"><g clip-path="url(#6a9f6ea377)"><g clip-rule="nonzero" clip-path="url(#3d2089b319)"><g clip-rule="nonzero" clip-path="url(#1a37121ed8)"><path style=" stroke:none;fill-rule:nonzero;fill:#38e31a;fill-opacity:1;" d="M 0.25 0.25 L 112.75 0.25 L 112.75 112.75 L 0.25 112.75 Z M 0.25 0.25 "/></g></g></g></g></g></g></g></svg>